<svg width="39" height="35" viewBox="0 0 39 35" fill="none" xmlns="http://www.w3.org/2000/svg">
<path d="M6.52 34.72C4.54667 34.72 2.97333 34.08 1.8 32.8C0.626667 31.5467 0.04 29.88 0.04 27.8C0.04 25.64 0.666667 23.7333 1.92 22.08C3.33333 20.32 5.08 19.44 7.16 19.44C7.77333 19.44 8.33333 19.6133 8.84 19.96C9.4 20.2533 9.68 20.7067 9.68 21.32C9.68 21.4533 9.64 21.5467 9.56 21.6C9.48 21.28 9.36 21.0267 9.2 20.84C8.93333 20.3867 8.38667 20.16 7.56 20.16C5.69333 20.16 4.17333 21.1067 3 23C1.96 24.6267 1.44 26.4267 1.44 28.4C1.44 30.08 1.84 31.44 2.64 32.48C3.49333 33.68 4.74667 34.28 6.4 34.28C9.54667 34.28 12.6 32.16 15.56 27.92C17.1067 25.6533 18.44 23.4267 19.56 21.24C20.68 19.0267 21.5733 16.84 22.24 14.68C22.4267 14.0667 22.6 13.4533 22.76 12.84C22.9467 12.2 23.1067 11.5333 23.24 10.84C23.2933 10.6 23.36 10.2933 23.44 9.92C23.52 9.54667 23.6133 9.14667 23.72 8.72C23.9333 7.92 24.4533 7.52 25.28 7.52C25.76 7.52 26 7.70667 26 8.08C26 8.34667 25.9067 8.89333 25.72 9.72C25.3467 11.5333 24.84 13.3467 24.2 15.16C23.56 16.9733 22.8133 18.7867 21.96 20.6H22.6C23.6667 20.6 24.8133 20.5067 26.04 20.32C27.2667 20.1333 28.6 19.84 30.04 19.44C34.5733 18.1067 36.84 15.9067 36.84 12.84C36.84 10.9467 35.96 9.28 34.2 7.84C33.48 7.22666 32.68 6.70667 31.8 6.28C30.92 5.85333 29.9733 5.49333 28.96 5.2C27.04 4.69333 25.0267 4.44 22.92 4.44H22.16C21.9733 7.24 21.2933 10.4133 20.12 13.96C19.5333 15.6133 18.88 17.2533 18.16 18.88C17.4667 20.48 16.6667 22.0533 15.76 23.6C13.6 27.44 11.4133 30.1467 9.2 31.72C7.97333 32.6267 6.90667 33.08 6 33.08C5.76 33.08 5.64 32.9867 5.64 32.8C5.64 32.64 5.74667 32.5467 5.96 32.52C6.33333 32.4667 6.66667 32.4 6.96 32.32C7.25333 32.24 7.52 32.1467 7.76 32.04C9.01333 31.4267 10.2667 30.4133 11.52 29C12.7733 27.6133 14.0267 25.8267 15.28 23.64C16.2667 21.9067 17.1333 20.16 17.88 18.4C18.6533 16.64 19.3333 14.8667 19.92 13.08C20.4 11.56 20.7867 10.0933 21.08 8.68C21.3733 7.24 21.5733 5.84 21.68 4.48C19.2533 4.58667 16.8933 5.01333 14.6 5.76C13.2667 6.18667 12.08 6.70667 11.04 7.32C10.0267 7.90666 9.14667 8.58667 8.4 9.36C7.38667 10.3733 6.88 11.5067 6.88 12.76C6.88 13.8 7.22667 14.7467 7.92 15.6C8.53333 16.3467 9.33333 16.9067 10.32 17.28C10.48 17.3333 10.68 17.4 10.92 17.48C11.1867 17.56 11.4933 17.64 11.84 17.72C12 17.7467 12.08 17.8133 12.08 17.92C12.08 18.0533 11.9867 18.0933 11.8 18.04H11.72C10.0933 17.8 8.61333 17.1333 7.28 16.04C5.78667 14.84 5.04 13.4533 5.04 11.88C5.04 10.7867 5.50667 9.77333 6.44 8.84C7.21333 8.06667 8.18667 7.36 9.36 6.72C10.56 6.08 11.9733 5.53333 13.6 5.08C14.88 4.70666 16.2 4.42667 17.56 4.24C18.92 4.02667 20.3067 3.89333 21.72 3.84V1.24C21.72 1.05333 21.8 0.959999 21.96 0.959999C22.04 0.959999 22.08 1.02667 22.08 1.16C22.1867 1.96 22.2267 2.84 22.2 3.8H24C25.0933 3.8 26.1333 3.85333 27.12 3.96C28.1067 4.06667 29.0667 4.21333 30 4.4C32.3467 4.93333 34.28 5.72 35.8 6.76C37.8267 8.17333 38.84 9.89333 38.84 11.92C38.84 13.8933 37.8667 15.6667 35.92 17.24C34.4267 18.4667 32.5333 19.4267 30.24 20.12C27.5733 20.92 24.72 21.28 21.68 21.2C17.3067 30.2133 12.2533 34.72 6.52 34.72Z" fill="white"/>
</svg>
