<svg width="271" height="88" viewBox="0 0 271 88" fill="none" xmlns="http://www.w3.org/2000/svg">
<path d="M13.04 68.44C9.09333 68.44 5.94667 67.16 3.6 64.6C1.25333 62.0933 0.08 58.76 0.08 54.6C0.08 50.28 1.33333 46.4667 3.84 43.16C6.66667 39.64 10.16 37.88 14.32 37.88C15.5467 37.88 16.6667 38.2267 17.68 38.92C18.8 39.5067 19.36 40.4133 19.36 41.64C19.36 41.9067 19.28 42.0933 19.12 42.2C18.96 41.56 18.72 41.0533 18.4 40.68C17.8667 39.7733 16.7733 39.32 15.12 39.32C11.3867 39.32 8.34667 41.2133 6 45C3.92 48.2533 2.88 51.8533 2.88 55.8C2.88 59.16 3.68 61.88 5.28 63.96C6.98667 66.36 9.49333 67.56 12.8 67.56C19.0933 67.56 25.2 63.32 31.12 54.84C34.2133 50.3067 36.88 45.8533 39.12 41.48C41.36 37.0533 43.1467 32.68 44.48 28.36C44.8533 27.1333 45.2 25.9067 45.52 24.68C45.8933 23.4 46.2133 22.0667 46.48 20.68C46.5867 20.2 46.72 19.5867 46.88 18.84C47.04 18.0933 47.2267 17.2933 47.44 16.44C47.8667 14.84 48.9067 14.04 50.56 14.04C51.52 14.04 52 14.4133 52 15.16C52 15.6933 51.8133 16.7867 51.44 18.44C50.6933 22.0667 49.68 25.6933 48.4 29.32C47.12 32.9467 45.6267 36.5733 43.92 40.2H45.2C47.3333 40.2 49.6267 40.0133 52.08 39.64C54.5333 39.2667 57.2 38.68 60.08 37.88C69.1467 35.2133 73.68 30.8133 73.68 24.68C73.68 20.8933 71.92 17.56 68.4 14.68C66.96 13.4533 65.36 12.4133 63.6 11.56C61.84 10.7067 59.9467 9.98666 57.92 9.4C54.08 8.38666 50.0533 7.88 45.84 7.88H44.32C43.9467 13.48 42.5867 19.8267 40.24 26.92C39.0667 30.2267 37.76 33.5067 36.32 36.76C34.9333 39.96 33.3333 43.1067 31.52 46.2C27.2 53.88 22.8267 59.2933 18.4 62.44C15.9467 64.2533 13.8133 65.16 12 65.16C11.52 65.16 11.28 64.9733 11.28 64.6C11.28 64.28 11.4933 64.0933 11.92 64.04C12.6667 63.9333 13.3333 63.8 13.92 63.64C14.5067 63.48 15.04 63.2933 15.52 63.08C18.0267 61.8533 20.5333 59.8267 23.04 57C25.5467 54.2267 28.0533 50.6533 30.56 46.28C32.5333 42.8133 34.2667 39.32 35.76 35.8C37.3067 32.28 38.6667 28.7333 39.84 25.16C40.8 22.12 41.5733 19.1867 42.16 16.36C42.7467 13.48 43.1467 10.68 43.36 7.96C38.5067 8.17333 33.7867 9.02666 29.2 10.52C26.5333 11.3733 24.16 12.4133 22.08 13.64C20.0533 14.8133 18.2933 16.1733 16.8 17.72C14.7733 19.7467 13.76 22.0133 13.76 24.52C13.76 26.6 14.4533 28.4933 15.84 30.2C17.0667 31.6933 18.6667 32.8133 20.64 33.56C20.96 33.6667 21.36 33.8 21.84 33.96C22.3733 34.12 22.9867 34.28 23.68 34.44C24 34.4933 24.16 34.6267 24.16 34.84C24.16 35.1067 23.9733 35.1867 23.6 35.08H23.44C20.1867 34.6 17.2267 33.2667 14.56 31.08C11.5733 28.68 10.08 25.9067 10.08 22.76C10.08 20.5733 11.0133 18.5467 12.88 16.68C14.4267 15.1333 16.3733 13.72 18.72 12.44C21.12 11.16 23.9467 10.0667 27.2 9.16C29.76 8.41333 32.4 7.85333 35.12 7.48C37.84 7.05333 40.6133 6.78666 43.44 6.68V1.48C43.44 1.10666 43.6 0.919997 43.92 0.919997C44.08 0.919997 44.16 1.05333 44.16 1.32C44.3733 2.92 44.4533 4.68 44.4 6.6H48C50.1867 6.6 52.2667 6.70666 54.24 6.92C56.2133 7.13333 58.1333 7.42666 60 7.8C64.6933 8.86666 68.56 10.44 71.6 12.52C75.6533 15.3467 77.68 18.7867 77.68 22.84C77.68 26.7867 75.7333 30.3333 71.84 33.48C68.8533 35.9333 65.0667 37.8533 60.48 39.24C55.1467 40.84 49.44 41.56 43.36 41.4C34.6133 59.4267 24.5067 68.44 13.04 68.44ZM76.0238 58.04C75.6504 58.04 75.1704 57.88 74.5838 57.56C73.9971 57.1333 73.7038 56.7867 73.7038 56.52C73.8638 56.2 73.9971 55.8533 74.1038 55.48C74.2638 55.1067 74.4504 54.7333 74.6638 54.36C75.6238 52.3333 76.5038 50.3067 77.3038 48.28C78.1038 46.2533 78.7704 44.2267 79.3038 42.2C79.8371 40.28 80.1038 38.0133 80.1038 35.4C79.9971 35.9333 79.6504 36.7333 79.0638 37.8C78.5304 38.8133 77.8104 40.0933 76.9038 41.64C76.0504 43.1333 75.2771 44.3867 74.5838 45.4C73.9438 46.36 73.4104 47.1333 72.9838 47.72C72.9838 47.7733 72.9304 47.8 72.8238 47.8C72.5571 47.8 72.4238 47.6933 72.4238 47.48C72.4238 47.3733 72.4504 47.2933 72.5038 47.24C72.8771 46.6533 73.2504 46.04 73.6238 45.4C74.0504 44.76 74.5038 44.0667 74.9837 43.32C76.4238 40.9733 77.5704 38.8667 78.4238 37C79.2771 35.1333 79.8904 33.48 80.2638 32.04C80.5838 30.6533 81.1171 29.96 81.8638 29.96C82.7171 29.96 83.1438 31.0267 83.1438 33.16C83.1438 37 81.9171 41.72 79.4638 47.32C82.3438 43.6933 84.3438 41.2933 85.4638 40.12C88.5038 36.8667 90.8771 35.24 92.5838 35.24C94.2904 35.24 95.1438 36.36 95.1438 38.6C95.1438 40.1467 94.7171 41.5067 93.8638 42.68C92.8504 44.1733 91.9171 44.92 91.0638 44.92C90.9038 44.92 90.8238 44.8133 90.8238 44.6C90.8238 44.6 91.1171 43.9333 91.7038 42.6C92.2904 41.2667 92.5838 40.12 92.5838 39.16C92.5838 37.72 92.1304 37 91.2238 37C89.9971 37 87.9171 38.6267 84.9838 41.88C82.6371 44.5467 80.9304 46.8133 79.8638 48.68C79.8104 48.84 79.5704 49.48 79.1438 50.6C78.7171 51.72 78.0771 53.3733 77.2238 55.56C77.1171 55.88 76.9838 56.2533 76.8238 56.68C76.7171 57.0533 76.5838 57.4533 76.4238 57.88C76.3171 57.9867 76.1838 58.04 76.0238 58.04ZM105.168 30.04C104.101 30.04 103.568 29.48 103.568 28.36C103.568 27.7733 103.888 27.1333 104.528 26.44C104.901 26.0133 105.221 25.6667 105.488 25.4C105.808 25.1333 106.101 24.9467 106.368 24.84C108.288 23.9333 109.434 23.48 109.808 23.48C109.968 23.48 110.048 23.5333 110.048 23.64C110.048 23.8 109.434 24.5733 108.208 25.96C108.154 26.0133 108.048 26.2533 107.888 26.68C107.728 27.0533 107.434 27.64 107.008 28.44C106.528 29.5067 105.914 30.04 105.168 30.04ZM100.368 55.72C97.6475 55.72 96.2875 54.36 96.2875 51.64C96.2875 49.6133 96.8208 47.0533 97.8875 43.96C97.6742 44.3333 97.4342 44.7067 97.1675 45.08C96.9542 45.4533 96.7142 45.8267 96.4475 46.2C95.7542 47.3733 95.2742 47.96 95.0075 47.96C94.9008 47.96 94.8475 47.88 94.8475 47.72C94.8475 47.2933 95.0075 46.8933 95.3275 46.52C96.6075 44.76 98.0208 42.2267 99.5675 38.92C99.7275 38.4933 99.9408 37.96 100.208 37.32C100.528 36.68 100.901 35.96 101.328 35.16C101.594 34.68 102.261 34.44 103.328 34.44C104.234 34.44 104.688 34.7067 104.688 35.24C104.688 35.7733 104.448 36.5733 103.968 37.64C103.381 38.7067 102.901 39.32 102.528 39.48C99.7542 45.0267 98.3675 49.1067 98.3675 51.72C98.3675 53.48 98.9542 54.36 100.128 54.36C102.048 54.36 104.154 52.9733 106.447 50.2C108.848 47.4267 110.021 46.04 109.968 46.04C110.074 46.04 110.128 46.12 110.128 46.28C110.128 46.3333 110.074 46.52 109.968 46.84C109.488 47.6933 108.874 48.5733 108.128 49.48C107.434 50.3333 106.634 51.24 105.728 52.2C103.381 54.5467 101.594 55.72 100.368 55.72ZM113.394 57.56C111.314 57.56 110.274 56.2267 110.274 53.56C110.274 50.3067 111.5 46.9733 113.954 43.56C113.1 41.48 112.674 39.2667 112.674 36.92C112.674 34.6267 113.127 32.6267 114.034 30.92C115.794 27.56 117.98 25.88 120.594 25.88C123.9 25.88 125.82 28.7067 126.354 34.36C129.02 34.4667 130.354 35.8533 130.354 38.52C130.354 40.7067 130.007 41.8 129.314 41.8C129.1 41.8 128.994 41.64 128.994 41.32C128.994 41.2133 128.994 41.1067 128.994 41C129.047 40.8933 129.1 40.76 129.154 40.6C129.154 40.3867 129.154 40.2267 129.154 40.12C129.207 39.96 129.234 39.8533 129.234 39.8C129.234 38.9467 128.967 38.2533 128.434 37.72C127.847 37.1333 127.18 36.84 126.434 36.84C125.794 43.3467 124.22 48.3333 121.714 51.8H124.194C123.5 52.2267 122.887 52.44 122.354 52.44C122.194 52.44 122.06 52.4133 121.954 52.36C121.794 52.3067 121.634 52.28 121.474 52.28C121.687 52.28 120.754 53.16 118.674 54.92C116.594 56.68 114.834 57.56 113.394 57.56ZM114.834 42.68C118.087 38.3067 121.5 35.5867 125.074 34.52C124.007 29.9333 122.54 27.64 120.674 27.64C118.967 27.64 117.394 29.32 115.954 32.68C115.474 33.7467 115.127 34.8933 114.914 36.12C114.7 37.2933 114.594 38.52 114.594 39.8C114.594 40.8133 114.674 41.7733 114.834 42.68ZM119.154 51.4C120.434 50.2267 121.74 47.9333 123.074 44.52C124.46 41 125.154 38.4133 125.154 36.76C123.98 36.92 122.14 38.0133 119.634 40.04C117.18 42.0133 115.66 43.5867 115.074 44.76C116.194 48.8133 117.554 51.0267 119.154 51.4ZM113.634 55.16C115.127 55.16 116.86 54.04 118.834 51.8C117.074 51.5867 115.634 49.48 114.514 45.48C112.754 48.4133 111.874 50.7067 111.874 52.36C111.874 54.2267 112.46 55.16 113.634 55.16ZM134.539 58.04C134.166 58.04 133.686 57.88 133.099 57.56C132.513 57.1333 132.219 56.7867 132.219 56.52C132.379 56.2 132.513 55.8533 132.619 55.48C132.779 55.1067 132.966 54.7333 133.179 54.36C134.139 52.3333 135.019 50.3067 135.819 48.28C136.619 46.2533 137.286 44.2267 137.819 42.2C138.353 40.28 138.619 38.0133 138.619 35.4C138.513 35.9333 138.166 36.7333 137.579 37.8C137.046 38.8133 136.326 40.0933 135.419 41.64C134.566 43.1333 133.793 44.3867 133.099 45.4C132.459 46.36 131.926 47.1333 131.499 47.72C131.499 47.7733 131.446 47.8 131.339 47.8C131.073 47.8 130.939 47.6933 130.939 47.48C130.939 47.3733 130.966 47.2933 131.019 47.24C131.393 46.6533 131.766 46.04 132.139 45.4C132.566 44.76 133.019 44.0667 133.499 43.32C134.939 40.9733 136.086 38.8667 136.939 37C137.793 35.1333 138.406 33.48 138.779 32.04C139.099 30.6533 139.633 29.96 140.379 29.96C141.233 29.96 141.659 31.0267 141.659 33.16C141.659 37 140.433 41.72 137.979 47.32C140.859 43.6933 142.859 41.2933 143.979 40.12C147.019 36.8667 149.393 35.24 151.099 35.24C152.806 35.24 153.659 36.36 153.659 38.6C153.659 40.1467 153.233 41.5067 152.379 42.68C151.366 44.1733 150.433 44.92 149.579 44.92C149.419 44.92 149.339 44.8133 149.339 44.6C149.339 44.6 149.633 43.9333 150.219 42.6C150.806 41.2667 151.099 40.12 151.099 39.16C151.099 37.72 150.646 37 149.739 37C148.513 37 146.433 38.6267 143.499 41.88C141.153 44.5467 139.446 46.8133 138.379 48.68C138.326 48.84 138.086 49.48 137.659 50.6C137.233 51.72 136.593 53.3733 135.739 55.56C135.633 55.88 135.499 56.2533 135.339 56.68C135.233 57.0533 135.099 57.4533 134.939 57.88C134.833 57.9867 134.699 58.04 134.539 58.04ZM163.683 30.04C162.616 30.04 162.083 29.48 162.083 28.36C162.083 27.7733 162.403 27.1333 163.043 26.44C163.416 26.0133 163.736 25.6667 164.003 25.4C164.323 25.1333 164.616 24.9467 164.883 24.84C166.803 23.9333 167.95 23.48 168.323 23.48C168.483 23.48 168.563 23.5333 168.563 23.64C168.563 23.8 167.95 24.5733 166.723 25.96C166.67 26.0133 166.563 26.2533 166.403 26.68C166.243 27.0533 165.95 27.64 165.523 28.44C165.043 29.5067 164.43 30.04 163.683 30.04ZM158.883 55.72C156.163 55.72 154.803 54.36 154.803 51.64C154.803 49.6133 155.336 47.0533 156.403 43.96C156.19 44.3333 155.95 44.7067 155.683 45.08C155.47 45.4533 155.23 45.8267 154.963 46.2C154.27 47.3733 153.79 47.96 153.523 47.96C153.416 47.96 153.363 47.88 153.363 47.72C153.363 47.2933 153.523 46.8933 153.843 46.52C155.123 44.76 156.536 42.2267 158.083 38.92C158.243 38.4933 158.456 37.96 158.723 37.32C159.043 36.68 159.416 35.96 159.843 35.16C160.11 34.68 160.776 34.44 161.843 34.44C162.75 34.44 163.203 34.7067 163.203 35.24C163.203 35.7733 162.963 36.5733 162.483 37.64C161.896 38.7067 161.416 39.32 161.043 39.48C158.27 45.0267 156.883 49.1067 156.883 51.72C156.883 53.48 157.47 54.36 158.643 54.36C160.563 54.36 162.67 52.9733 164.963 50.2C167.363 47.4267 168.536 46.04 168.483 46.04C168.59 46.04 168.643 46.12 168.643 46.28C168.643 46.3333 168.59 46.52 168.483 46.84C168.003 47.6933 167.39 48.5733 166.643 49.48C165.95 50.3333 165.15 51.24 164.243 52.2C161.896 54.5467 160.11 55.72 158.883 55.72ZM177.829 58.92C175.163 58.92 173.829 57.2933 173.829 54.04C173.829 51.6933 174.416 48.7867 175.589 45.32C175.376 44.6267 175.003 44.0133 174.469 43.48C173.936 42.8933 173.243 42.4133 172.389 42.04C171.696 41.72 170.976 41.4267 170.229 41.16C169.536 40.8933 168.816 40.6 168.069 40.28C167.376 39.96 167.029 39.4 167.029 38.6C167.029 37.7467 167.403 37.24 168.149 37.08H170.309C173.136 37.08 176.096 36.76 179.189 36.12L179.269 35.96L184.549 24.28C184.816 23.6933 185.136 22.9467 185.509 22.04C185.883 21.1333 186.336 20.0933 186.869 18.92C187.296 17.96 188.336 17.48 189.989 17.48C191.109 17.48 191.669 17.7467 191.669 18.28C191.669 18.44 190.683 20.68 188.709 25C186.683 29.48 185.563 31.8267 185.349 32.04C185.243 32.1467 185.056 32.3333 184.789 32.6C184.576 32.8133 184.309 33.0533 183.989 33.32C183.776 33.6933 183.456 34.3333 183.029 35.24C183.829 34.9733 185.189 34.52 187.109 33.88C189.083 33.1867 191.616 32.3067 194.709 31.24C194.923 31.1867 195.109 31.16 195.269 31.16C195.429 31.1067 195.536 31.08 195.589 31.08C195.803 31.08 195.909 31.1333 195.909 31.24C195.909 32.1467 191.403 33.88 182.389 36.44C181.323 38.52 180.416 40.3067 179.669 41.8C178.923 43.24 178.363 44.4133 177.989 45.32C177.296 47.0267 176.763 48.68 176.389 50.28C176.069 51.8267 175.909 53.3467 175.909 54.84C175.909 56.6 176.496 57.48 177.669 57.48C179.109 57.48 181.003 56.4667 183.349 54.44C184.576 53.3733 185.483 52.6 186.069 52.12C186.656 51.5867 186.949 51.32 186.949 51.32C187.109 51.32 187.189 51.4 187.189 51.56C187.189 51.72 187.109 51.96 186.949 52.28C186.096 53.56 184.736 54.92 182.869 56.36C180.683 58.0667 179.003 58.92 177.829 58.92ZM175.909 44.2C176.283 43.1333 176.683 42.04 177.109 40.92C177.589 39.8 178.096 38.6533 178.629 37.48C177.296 37.8 175.936 38.0933 174.549 38.36C173.216 38.6267 171.883 38.8667 170.549 39.08C173.323 40.52 175.109 42.2267 175.909 44.2ZM198.371 30.04C197.304 30.04 196.771 29.48 196.771 28.36C196.771 27.7733 197.091 27.1333 197.731 26.44C198.104 26.0133 198.424 25.6667 198.691 25.4C199.011 25.1333 199.304 24.9467 199.571 24.84C201.491 23.9333 202.637 23.48 203.011 23.48C203.171 23.48 203.251 23.5333 203.251 23.64C203.251 23.8 202.637 24.5733 201.411 25.96C201.357 26.0133 201.251 26.2533 201.091 26.68C200.931 27.0533 200.637 27.64 200.211 28.44C199.731 29.5067 199.117 30.04 198.371 30.04ZM193.571 55.72C190.851 55.72 189.491 54.36 189.491 51.64C189.491 49.6133 190.024 47.0533 191.091 43.96C190.877 44.3333 190.637 44.7067 190.371 45.08C190.157 45.4533 189.917 45.8267 189.651 46.2C188.957 47.3733 188.477 47.96 188.211 47.96C188.104 47.96 188.051 47.88 188.051 47.72C188.051 47.2933 188.211 46.8933 188.531 46.52C189.811 44.76 191.224 42.2267 192.771 38.92C192.931 38.4933 193.144 37.96 193.411 37.32C193.731 36.68 194.104 35.96 194.531 35.16C194.797 34.68 195.464 34.44 196.531 34.44C197.437 34.44 197.891 34.7067 197.891 35.24C197.891 35.7733 197.651 36.5733 197.171 37.64C196.584 38.7067 196.104 39.32 195.731 39.48C192.957 45.0267 191.571 49.1067 191.571 51.72C191.571 53.48 192.157 54.36 193.331 54.36C195.251 54.36 197.357 52.9733 199.651 50.2C202.051 47.4267 203.224 46.04 203.171 46.04C203.277 46.04 203.331 46.12 203.331 46.28C203.331 46.3333 203.277 46.52 203.171 46.84C202.691 47.6933 202.077 48.5733 201.331 49.48C200.637 50.3333 199.837 51.24 198.931 52.2C196.584 54.5467 194.797 55.72 193.571 55.72ZM184.277 87.8C179.69 87.8 177.397 85.88 177.397 82.04C177.397 78.6267 179.13 75.08 182.597 71.4C185.264 68.5733 188.464 66.0667 192.197 63.88C199.717 59.4533 208.517 57.1333 218.597 56.92C219.344 54.36 219.717 52.0667 219.717 50.04C219.717 46.1467 218.41 44.2 215.797 44.2C214.89 44.2 213.637 44.5733 212.037 45.32C211.29 45.6933 210.704 45.9867 210.277 46.2C209.904 46.36 209.717 46.44 209.717 46.44C209.184 46.44 208.917 46.2 208.917 45.72C208.917 45.5067 209.05 45.2667 209.317 45C210.064 44.3067 210.81 43.5067 211.557 42.6C212.357 41.6933 213.157 40.7067 213.957 39.64C215.984 36.8667 216.997 34.8667 216.997 33.64C216.997 32.84 216.624 32.44 215.877 32.44C213.264 32.44 209.157 37.0267 203.557 46.2C203.397 46.52 203.21 46.68 202.997 46.68C202.784 46.68 202.677 46.5467 202.677 46.28C202.677 46.0667 202.757 45.8533 202.917 45.64C203.344 44.8933 203.824 44.0667 204.357 43.16C204.89 42.2533 205.477 41.2667 206.117 40.2C209.797 33.96 213.104 30.84 216.037 30.84C218.437 30.84 219.637 31.64 219.637 33.24C219.637 35.6933 217.77 38.9467 214.037 43C215.53 42.0933 216.784 41.64 217.797 41.64C220.89 41.64 222.437 44.36 222.437 49.8C222.437 51.1333 222.357 52.3867 222.197 53.56C222.037 54.7333 221.824 55.8533 221.557 56.92C222.25 56.9733 222.97 57.0533 223.717 57.16C224.464 57.32 225.237 57.5333 226.037 57.8C228.064 58.5467 229.077 59.4267 229.077 60.44C229.077 61.5067 228.757 62.04 228.117 62.04C227.957 62.04 227.877 61.9333 227.877 61.72C227.877 61.56 227.904 61.4533 227.957 61.4C228.01 61.2933 228.037 61.16 228.037 61C228.037 60.2533 227.077 59.56 225.157 58.92C223.717 58.3867 222.437 58.12 221.317 58.12C219.877 63.7733 216.65 69.0267 211.637 73.88C207.264 78.1467 202.117 81.6933 196.197 84.52C191.397 86.7067 187.424 87.8 184.277 87.8ZM185.077 85.56C192.01 85.56 198.864 82.6533 205.637 76.84C212.037 71.2933 216.277 65.08 218.357 58.2C214.09 58.36 209.504 59.16 204.597 60.6C199.637 62.1467 195.397 64.0133 191.877 66.2C190.384 67.0533 188.97 68.04 187.637 69.16C186.304 70.28 185.024 71.48 183.797 72.76C180.597 76.12 178.997 79.0533 178.997 81.56C178.997 84.2267 181.024 85.56 185.077 85.56ZM232.301 58.52C228.514 58.52 226.621 56.0667 226.621 51.16C226.621 50.4133 226.647 49.6133 226.701 48.76C226.807 47.8533 226.967 46.8933 227.181 45.88C226.967 45.72 226.754 45.5067 226.541 45.24C226.327 44.92 226.114 44.5467 225.901 44.12C226.114 44.1733 226.327 44.28 226.541 44.44C226.807 44.5467 227.127 44.6533 227.501 44.76C228.087 42.0933 229.687 39.4533 232.301 36.84C235.127 33.96 237.794 32.52 240.301 32.52C240.887 32.52 241.181 32.6 241.181 32.76C241.181 32.8667 240.807 33.1333 240.061 33.56C238.087 34.6267 236.247 36.28 234.541 38.52C232.727 40.76 231.421 43 230.621 45.24C230.674 45.2933 230.701 45.32 230.701 45.32C230.701 45.32 230.727 45.3467 230.781 45.4C233.341 45.4 236.007 44.1733 238.781 41.72C241.554 39.2667 242.941 36.76 242.941 34.2C242.941 33.4533 242.727 32.7333 242.301 32.04C241.927 31.4 241.341 31.08 240.541 31.08C239.527 31.08 238.327 31.48 236.941 32.28C235.607 33.1333 234.861 33.56 234.701 33.56C234.594 33.56 234.541 33.5333 234.541 33.48C234.541 32.84 235.474 32.1467 237.341 31.4C238.941 30.76 240.194 30.44 241.101 30.44C242.381 30.44 243.394 30.7867 244.141 31.48C244.994 32.1733 245.421 33.1333 245.421 34.36C245.421 37.1867 243.581 39.9333 239.901 42.6C236.594 44.9467 233.394 46.2533 230.301 46.52C229.874 47.8 229.661 49.0267 229.661 50.2C229.661 54.6267 231.261 56.84 234.461 56.84C236.914 56.84 239.474 55.7733 242.141 53.64C244.381 51.88 246.247 49.7467 247.741 47.24C248.221 46.4933 248.621 46.12 248.941 46.12C248.994 46.12 249.021 46.1733 249.021 46.28C249.021 46.4933 248.807 46.9733 248.381 47.72C246.727 50.3333 244.407 52.7333 241.421 54.92C238.167 57.32 235.127 58.52 232.301 58.52ZM251.414 58.04C251.041 58.04 250.561 57.88 249.974 57.56C249.388 57.1333 249.094 56.7867 249.094 56.52C249.254 56.2 249.388 55.8533 249.494 55.48C249.654 55.1067 249.841 54.7333 250.054 54.36C251.014 52.3333 251.894 50.3067 252.694 48.28C253.494 46.2533 254.161 44.2267 254.694 42.2C255.228 40.28 255.494 38.0133 255.494 35.4C255.388 35.9333 255.041 36.7333 254.454 37.8C253.921 38.8133 253.201 40.0933 252.294 41.64C251.441 43.1333 250.668 44.3867 249.974 45.4C249.334 46.36 248.801 47.1333 248.374 47.72C248.374 47.7733 248.321 47.8 248.214 47.8C247.948 47.8 247.814 47.6933 247.814 47.48C247.814 47.3733 247.841 47.2933 247.894 47.24C248.268 46.6533 248.641 46.04 249.014 45.4C249.441 44.76 249.894 44.0667 250.374 43.32C251.814 40.9733 252.961 38.8667 253.814 37C254.668 35.1333 255.281 33.48 255.654 32.04C255.974 30.6533 256.508 29.96 257.254 29.96C258.108 29.96 258.534 31.0267 258.534 33.16C258.534 37 257.308 41.72 254.854 47.32C257.734 43.6933 259.734 41.2933 260.854 40.12C263.894 36.8667 266.268 35.24 267.974 35.24C269.681 35.24 270.534 36.36 270.534 38.6C270.534 40.1467 270.108 41.5067 269.254 42.68C268.241 44.1733 267.308 44.92 266.454 44.92C266.294 44.92 266.214 44.8133 266.214 44.6C266.214 44.6 266.508 43.9333 267.094 42.6C267.681 41.2667 267.974 40.12 267.974 39.16C267.974 37.72 267.521 37 266.614 37C265.388 37 263.308 38.6267 260.374 41.88C258.028 44.5467 256.321 46.8133 255.254 48.68C255.201 48.84 254.961 49.48 254.534 50.6C254.108 51.72 253.468 53.3733 252.614 55.56C252.508 55.88 252.374 56.2533 252.214 56.68C252.108 57.0533 251.974 57.4533 251.814 57.88C251.708 57.9867 251.574 58.04 251.414 58.04Z" fill="white"/>
</svg>
